STARTFONT 2.1
FONT -Bitstream-Terminal-Bold-R-Double Wide--18-140-100-100-C-220-DEC-DECtech
SIZE 14 100 100
FONTBOUNDINGBOX 22 20 0 -5

STARTPROPERTIES 25
CHARSET_REGISTRY "DEC"
CHARSET_ENCODING "DECtech"
CAP_HEIGHT 11
X_HEIGHT 9
AVERAGE_WIDTH 220
FONTNAME_REGISTRY ""
FAMILY_NAME "Terminal"
FOUNDRY "Bitstream"
WEIGHT_NAME "Bold"
SETWIDTH_NAME "Double Wide"
SLANT "R"
ADD_STYLE_NAME ""
PIXEL_SIZE 18
POINT_SIZE 140
RESOLUTION_X 100
RESOLUTION_Y 100
SPACING "C"
CHARSET_COLLECTIONS "DEC-DECtech"
FULL_NAME "Terminal Bold Double Wide"
COPYRIGHT "Copyright (c) 1988 Bitstream, Inc., Copyright 1990 Digital Equipment Corp. All rights reserved."
WEIGHT 10
QUAD_WIDTH 22
DEFAULT_CHAR 159
FONT_DESCENT 5
FONT_ASCENT 15
ENDPROPERTIES

CHARS 181

STARTCHAR space
ENCODING 32
SWIDTH 1131 0
DWIDTH 22 0
BBX 1 1 0 0
BITMAP
00
ENDCHAR

STARTCHAR exclam
ENCODING 33
SWIDTH 1131 0
DWIDTH 22 0
BBX 10 11 6 0
BITMAP
3F00
3F00
3F00
3F00
3F00
3F00
3F00
0000
3F00
FFC0
3F00
ENDCHAR

STARTCHAR quotedbl
ENCODING 34
SWIDTH 1131 0
DWIDTH 22 0
BBX 12 6 5 7
BITMAP
F0F0
F0F0
F0F0
F0F0
F0F0
F0F0
ENDCHAR

STARTCHAR numbersign
ENCODING 35
SWIDTH 1131 0
DWIDTH 22 0
BBX 22 14 0 -3
BITMAP
1F87E0
1F87E0
1F87E0
1F87E0
FFFFFC
FFFFFC
1F87E0
1F87E0
FFFFFC
FFFFFC
1F87E0
1F87E0
1F87E0
1F87E0
ENDCHAR

STARTCHAR dollar
ENCODING 36
SWIDTH 1131 0
DWIDTH 22 0
BBX 18 16 2 -3
BITMAP
00F000
00F000
1FF3C0
7FFFC0
FC0FC0
FC03C0
7FC000
3FFC00
00FF80
F00FC0
FC0FC0
FFFFC0
F3FF00
03C000
03C000
03C000
ENDCHAR

STARTCHAR percent
ENCODING 37
SWIDTH 1131 0
DWIDTH 22 0
BBX 20 12 1 -1
BITMAP
3FC000
FFF000
F0F000
FFF1C0
3FCF00
007800
03C000
1E3FC0
70FFF0
00F0F0
00FFF0
003FC0
ENDCHAR

STARTCHAR ampersand
ENCODING 38
SWIDTH 1131 0
DWIDTH 22 0
BBX 18 11 2 0
BITMAP
0FF300
1FFF00
3F0F00
1F0000
0F83C0
3FE3C0
7DF300
FC7F00
FC3F00
7FFFC0
3FF3C0
ENDCHAR

STARTCHAR quoteright
ENCODING 39
SWIDTH 1131 0
DWIDTH 22 0
BBX 10 5 6 8
BITMAP
3FC0
3F00
3C00
FC00
F000
ENDCHAR

STARTCHAR parenleft
ENCODING 40
SWIDTH 1131 0
DWIDTH 22 0
BBX 11 16 5 -3
BITMAP
01E0
0780
1F00
3E00
7E00
7C00
FC00
FC00
FC00
FC00
7C00
7E00
3E00
1F00
0780
01E0
ENDCHAR

STARTCHAR parenright
ENCODING 41
SWIDTH 1131 0
DWIDTH 22 0
BBX 11 16 5 -3
BITMAP
F000
3C00
1F00
0F80
0FC0
07C0
07E0
07E0
07E0
07E0
07C0
0FC0
0F80
1F00
3C00
F000
ENDCHAR

STARTCHAR asterisk
ENCODING 42
SWIDTH 1131 0
DWIDTH 22 0
BBX 18 7 2 2
BITMAP
03F000
03F000
F3F3C0
FFFFC0
0FFC00
3F3F00
3C0F00
ENDCHAR

STARTCHAR plus
ENCODING 43
SWIDTH 1131 0
DWIDTH 22 0
BBX 18 10 2 0
BITMAP
03F000
03F000
03F000
03F000
FFFFC0
FFFFC0
03F000
03F000
03F000
03F000
ENDCHAR

STARTCHAR comma
ENCODING 44
SWIDTH 1131 0
DWIDTH 22 0
BBX 10 6 6 -3
BITMAP
3FC0
3F00
3F00
FC00
FC00
F000
ENDCHAR

STARTCHAR minus
ENCODING 45
SWIDTH 1131 0
DWIDTH 22 0
BBX 16 2 3 4
BITMAP
FFFF
FFFF
ENDCHAR

STARTCHAR period
ENCODING 46
SWIDTH 1131 0
DWIDTH 22 0
BBX 8 4 7 0
BITMAP
3C
FF
FF
3C
ENDCHAR

STARTCHAR slash
ENCODING 47
SWIDTH 1131 0
DWIDTH 22 0
BBX 18 14 2 -2
BITMAP
0007C0
000F80
001F00
003E00
007C00
00F800
01F000
03E000
07C000
0F8000
1F0000
3E0000
7C0000
F80000
ENDCHAR

STARTCHAR zero
ENCODING 48
SWIDTH 1131 0
DWIDTH 22 0
BBX 19 11 1 0
BITMAP
01F000
0FFE00
3E0F80
7C07C0
FC07E0
FC07E0
FC07E0
7C07C0
3E0F80
0FFE00
01F000
ENDCHAR

STARTCHAR one
ENCODING 49
SWIDTH 1131 0
DWIDTH 22 0
BBX 16 11 3 0
BITMAP
07E0
3FE0
FFE0
E7E0
07E0
07E0
07E0
07E0
07E0
FFFF
FFFF
ENDCHAR

STARTCHAR two
ENCODING 50
SWIDTH 1131 0
DWIDTH 22 0
BBX 17 11 2 0
BITMAP
1FFC00
FFFF00
F01F80
F01F80
003F00
00FC00
03F000
0F8000
3E0780
FFFF80
FFFF80
ENDCHAR

STARTCHAR three
ENCODING 51
SWIDTH 1131 0
DWIDTH 22 0
BBX 17 11 2 0
BITMAP
1FFC00
FFFF00
E01F80
001F00
03FC00
03FF00
001F80
001F80
F01F80
FFFF00
3FFC00
ENDCHAR

STARTCHAR four
ENCODING 52
SWIDTH 1131 0
DWIDTH 22 0
BBX 16 11 3 0
BITMAP
03FC
07FC
0EFC
1CFC
38FC
70FC
FFFF
FFFF
00FC
00FC
00FC
ENDCHAR

STARTCHAR five
ENCODING 53
SWIDTH 1131 0
DWIDTH 22 0
BBX 17 11 2 0
BITMAP
FFFF80
FFFF80
FC0000
FC0000
FFFE00
FFFF80
E01F80
001F80
F01F80
FFFF80
3FFE00
ENDCHAR

STARTCHAR six
ENCODING 54
SWIDTH 1131 0
DWIDTH 22 0
BBX 17 11 2 0
BITMAP
07FF00
1FFF00
3F0000
7C0000
7CFC00
FFFF00
FE1F80
FC0F80
FE1F80
7FFF00
1FFC00
ENDCHAR

STARTCHAR seven
ENCODING 55
SWIDTH 1131 0
DWIDTH 22 0
BBX 17 11 2 0
BITMAP
FFFF80
FFFF80
F01F80
003F00
007E00
00FC00
01F800
03F000
07E000
0FC000
1F8000
ENDCHAR

STARTCHAR eight
ENCODING 56
SWIDTH 1131 0
DWIDTH 22 0
BBX 17 11 2 0
BITMAP
1FFC00
7FFF00
7C1F00
7C1F00
3FFE00
7FFF00
FC1F80
FC1F80
FC1F80
7FFF00
1FFC00
ENDCHAR

STARTCHAR nine
ENCODING 57
SWIDTH 1131 0
DWIDTH 22 0
BBX 17 11 2 0
BITMAP
1FFC00
7FFF00
FC3F80
F81F80
FC3F80
7FFF80
1F9F00
001F00
007E00
7FFC00
7FF000
ENDCHAR

STARTCHAR colon
ENCODING 58
SWIDTH 1131 0
DWIDTH 22 0
BBX 8 9 7 0
BITMAP
3C
FF
FF
3C
00
3C
FF
FF
3C
ENDCHAR

STARTCHAR semicolon
ENCODING 59
SWIDTH 1131 0
DWIDTH 22 0
BBX 10 12 6 -3
BITMAP
0F00
3FC0
3FC0
0F00
0000
0000
3FC0
3F00
3F00
FC00
FC00
F000
ENDCHAR

STARTCHAR less
ENCODING 60
SWIDTH 1131 0
DWIDTH 22 0
BBX 18 9 2 1
BITMAP
0003C0
003FC0
03FF00
3FF000
FF0000
3FF000
03FF00
003FC0
0003C0
ENDCHAR

STARTCHAR equal
ENCODING 61
SWIDTH 1131 0
DWIDTH 22 0
BBX 18 6 2 2
BITMAP
FFFFC0
FFFFC0
000000
000000
FFFFC0
FFFFC0
ENDCHAR

STARTCHAR greater
ENCODING 62
SWIDTH 1131 0
DWIDTH 22 0
BBX 18 9 2 1
BITMAP
F00000
FF0000
3FF000
03FF00
003FC0
03FF00
3FF000
FF0000
F00000
ENDCHAR

STARTCHAR question
ENCODING 63
SWIDTH 1131 0
DWIDTH 22 0
BBX 16 11 3 0
BITMAP
3FFC
FFFF
FC3F
003F
03FC
0FF0
0FC0
0000
0FC0
3FF0
0FC0
ENDCHAR

STARTCHAR at
ENCODING 64
SWIDTH 1131 0
DWIDTH 22 0
BBX 20 14 1 -2
BITMAP
0FFE00
3FFF80
7C07C0
F803C0
F0FFC0
F3FFC0
F3C3C0
F3C3C0
F3FFF0
F0FCF0
F80000
7C0000
3FFF00
0FFF00
ENDCHAR

STARTCHAR A
ENCODING 65
SWIDTH 1131 0
DWIDTH 22 0
BBX 20 11 1 0
BITMAP
03FC00
03FC00
07FE00
079E00
0F9F00
0F0F00
1FFF80
3FFFC0
3C03C0
FF0FF0
FF0FF0
ENDCHAR

STARTCHAR B
ENCODING 66
SWIDTH 1131 0
DWIDTH 22 0
BBX 20 11 1 0
BITMAP
FFFF00
FFFFC0
3F0FC0
3F0FC0
3FFF00
3FFFC0
3F03F0
3F03F0
3F03F0
FFFFE0
FFFF80
ENDCHAR

STARTCHAR C
ENCODING 67
SWIDTH 1131 0
DWIDTH 22 0
BBX 20 11 1 0
BITMAP
07FCF0
3FFFF0
7E03F0
FC00F0
FC0000
FC0000
FC0000
FC0000
7E00F0
3FFFF0
07FF00
ENDCHAR

STARTCHAR D
ENCODING 68
SWIDTH 1131 0
DWIDTH 22 0
BBX 20 11 1 0
BITMAP
FFFF00
FFFFC0
3F07E0
3F03F0
3F03F0
3F03F0
3F03F0
3F03F0
3F07E0
FFFFC0
FFFF00
ENDCHAR

STARTCHAR E
ENCODING 69
SWIDTH 1131 0
DWIDTH 22 0
BBX 20 11 1 0
BITMAP
FFFFF0
FFFFF0
3F00F0
3F3CF0
3FFC00
3FFC00
3F3C00
3F00F0
3F00F0
FFFFF0
FFFFF0
ENDCHAR

STARTCHAR F
ENCODING 70
SWIDTH 1131 0
DWIDTH 22 0
BBX 20 11 1 0
BITMAP
FFFFF0
FFFFF0
3F00F0
3F3CF0
3FFC00
3FFC00
3F3C00
3F0000
3F0000
FFC000
FFC000
ENDCHAR

STARTCHAR G
ENCODING 71
SWIDTH 1131 0
DWIDTH 22 0
BBX 20 11 1 0
BITMAP
07FCF0
3FFFF0
7E03F0
FC00F0
FC0000
FC3FF0
FC3FF0
FC03F0
7E03F0
3FFFF0
07FF80
ENDCHAR

STARTCHAR H
ENCODING 72
SWIDTH 1131 0
DWIDTH 22 0
BBX 20 11 1 0
BITMAP
FF0FF0
FF0FF0
3F0FC0
3F0FC0
3FFFC0
3FFFC0
3F0FC0
3F0FC0
3F0FC0
FF0FF0
FF0FF0
ENDCHAR

STARTCHAR I
ENCODING 73
SWIDTH 1131 0
DWIDTH 22 0
BBX 18 11 2 0
BITMAP
FFFFC0
FFFFC0
03F000
03F000
03F000
03F000
03F000
03F000
03F000
FFFFC0
FFFFC0
ENDCHAR

STARTCHAR J
ENCODING 74
SWIDTH 1131 0
DWIDTH 22 0
BBX 20 11 1 0
BITMAP
03FFF0
03FFF0
003F00
003F00
003F00
003F00
F03F00
F03F00
F83F00
FFFE00
3FFC00
ENDCHAR

STARTCHAR K
ENCODING 75
SWIDTH 1131 0
DWIDTH 22 0
BBX 20 11 1 0
BITMAP
FF0FF0
FF0FF0
3F1F00
3F3C00
3F7800
3FFC00
3FFC00
3F1E00
3F1F00
FF0FF0
FF0FF0
ENDCHAR

STARTCHAR L
ENCODING 76
SWIDTH 1131 0
DWIDTH 22 0
BBX 18 11 2 0
BITMAP
FFC000
FFC000
3F0000
3F0000
3F0000
3F0000
3F03C0
3F03C0
3F03C0
FFFFC0
FFFFC0
ENDCHAR

STARTCHAR M
ENCODING 77
SWIDTH 1131 0
DWIDTH 22 0
BBX 20 11 1 0
BITMAP
FC03F0
FE07F0
3E07C0
3F0FC0
3F9FC0
3DFBC0
3EF7C0
3E67C0
3E07C0
FE07F0
FE07F0
ENDCHAR

STARTCHAR N
ENCODING 78
SWIDTH 1131 0
DWIDTH 22 0
BBX 20 11 1 0
BITMAP
FF0FF0
FF0FF0
3F8FC0
3FCFC0
3FEFC0
3F7FC0
3F3FC0
3F1FC0
3F0FC0
FF0FC0
FF0FC0
ENDCHAR

STARTCHAR O
ENCODING 79
SWIDTH 1131 0
DWIDTH 22 0
BBX 20 11 1 0
BITMAP
07FE00
3FFFC0
7E07E0
FC03F0
FC03F0
FC03F0
FC03F0
FC03F0
7E07E0
3FFFC0
07FE00
ENDCHAR

STARTCHAR P
ENCODING 80
SWIDTH 1131 0
DWIDTH 22 0
BBX 18 11 2 0
BITMAP
FFFF00
FFFF80
3F0FC0
3F0FC0
3F0FC0
3FFF80
3FFF00
3F0000
3F0000
FFC000
FFC000
ENDCHAR

STARTCHAR Q
ENCODING 81
SWIDTH 1131 0
DWIDTH 22 0
BBX 20 15 1 -4
BITMAP
07FE00
3FFFC0
7E07E0
FC03F0
FC03F0
FC03F0
FC03F0
FC03F0
7E07E0
3FFFC0
07FE00
01C000
03C070
0FFFF0
0F3FC0
ENDCHAR

STARTCHAR R
ENCODING 82
SWIDTH 1131 0
DWIDTH 22 0
BBX 19 11 1 0
BITMAP
FFFF80
FFFFC0
3F0FC0
3F0FC0
3FFF80
3FFE00
3F3E00
3F1F00
3F0F00
FF0FE0
FF07E0
ENDCHAR

STARTCHAR S
ENCODING 83
SWIDTH 1131 0
DWIDTH 22 0
BBX 16 11 3 0
BITMAP
1FCF
7FFF
FC1F
FC0F
7F80
3FFC
01FF
F03F
F83F
FFFE
F3F8
ENDCHAR

STARTCHAR T
ENCODING 84
SWIDTH 1131 0
DWIDTH 22 0
BBX 20 11 1 0
BITMAP
FFFFF0
FFFFF0
F1F8F0
F1F8F0
F1F8F0
01F800
01F800
01F800
01F800
07FE00
07FE00
ENDCHAR

STARTCHAR U
ENCODING 85
SWIDTH 1131 0
DWIDTH 22 0
BBX 20 11 1 0
BITMAP
FF0FF0
FF0FF0
3F0FC0
3F0FC0
3F0FC0
3F0FC0
3F0FC0
3F0FC0
3F0FC0
1FFF80
0FFF00
ENDCHAR

STARTCHAR V
ENCODING 86
SWIDTH 1131 0
DWIDTH 22 0
BBX 20 11 1 0
BITMAP
FE07F0
FE07F0
3E07C0
1F0F80
1F0F80
0F9F00
0F9F00
07FE00
03FC00
03FC00
01F800
ENDCHAR

STARTCHAR W
ENCODING 87
SWIDTH 1131 0
DWIDTH 22 0
BBX 20 11 1 0
BITMAP
FF0FF0
FF0FF0
3C03C0
3C63C0
3CF3C0
3CF3C0
3DFBC0
1F9F80
1F9F80
0F0F00
0F0F00
ENDCHAR

STARTCHAR X
ENCODING 88
SWIDTH 1131 0
DWIDTH 22 0
BBX 20 11 1 0
BITMAP
FE07F0
FF0FF0
1F9F80
0FFF00
07FE00
03FC00
07FE00
0FFF00
1F9F80
FF0FF0
FE07F0
ENDCHAR

STARTCHAR Y
ENCODING 89
SWIDTH 1131 0
DWIDTH 22 0
BBX 18 11 2 0
BITMAP
FE1FC0
FE1FC0
3F3F00
1F3E00
0FFC00
07F800
03F000
03F000
03F000
0FFC00
0FFC00
ENDCHAR

STARTCHAR Z
ENCODING 90
SWIDTH 1131 0
DWIDTH 22 0
BBX 15 11 3 0
BITMAP
FFFC
FFFC
F1F8
F3F0
07E0
0FC0
1F80
3F1E
7E1E
FFFE
FFFE
ENDCHAR

STARTCHAR bracketleft
ENCODING 91
SWIDTH 1131 0
DWIDTH 22 0
BBX 10 15 6 -2
BITMAP
FFC0
FFC0
FC00
FC00
FC00
FC00
FC00
FC00
FC00
FC00
FC00
FC00
FC00
FFC0
FFC0
ENDCHAR

STARTCHAR backslash
ENCODING 92
SWIDTH 1131 0
DWIDTH 22 0
BBX 18 14 2 -2
BITMAP
F80000
7C0000
3E0000
1F0000
0F8000
07C000
03E000
01F000
00F800
007C00
003E00
001F00
000F80
0007C0
ENDCHAR

STARTCHAR bracketright
ENCODING 93
SWIDTH 1131 0
DWIDTH 22 0
BBX 10 15 6 -2
BITMAP
FFC0
FFC0
0FC0
0FC0
0FC0
0FC0
0FC0
0FC0
0FC0
0FC0
0FC0
0FC0
0FC0
FFC0
FFC0
ENDCHAR

STARTCHAR asciicircum
ENCODING 94
SWIDTH 1131 0
DWIDTH 22 0
BBX 16 4 3 5
BITMAP
03C0
0FF0
3FFC
F00F
ENDCHAR

STARTCHAR ldblank
ENCODING 95
SWIDTH 1131 0
DWIDTH 22 0
BBX 1 1 0 0
BITMAP
00
ENDCHAR

STARTCHAR diamond
ENCODING 96
SWIDTH 1131 0
DWIDTH 22 0
BBX 18 11 2 0
BITMAP
00C000
03F000
0FFC00
0FFC00
3FFF00
FFFFC0
3FFF00
0FFC00
0FFC00
03F000
00C000
ENDCHAR

STARTCHAR checkerboard
ENCODING 97
SWIDTH 1131 0
DWIDTH 22 0
BBX 22 20 0 -5
BITMAP
332664
CCD998
332664
CCD998
332664
CCD998
332664
CCD998
332664
CCD998
332664
CCD998
332664
CCD998
332664
CCD998
332664
CCD998
332664
CCD998
ENDCHAR

STARTCHAR HT
ENCODING 98
SWIDTH 1131 0
DWIDTH 22 0
BBX 20 13 1 -1
BITMAP
F0F000
F0F000
FFF000
FFF000
F0F000
F0F000
000000
003FF0
003FF0
000780
000780
000780
000780
ENDCHAR

STARTCHAR FF
ENCODING 99
SWIDTH 1131 0
DWIDTH 22 0
BBX 20 13 1 -1
BITMAP
FFC000
FFC000
F00000
FF0000
FF0000
F00000
F03FF0
003FF0
003C00
003FC0
003FC0
003C00
003C00
ENDCHAR

STARTCHAR CR
ENCODING 100
SWIDTH 1131 0
DWIDTH 22 0
BBX 20 13 1 -1
BITMAP
3F8000
FFC000
F00000
F00000
FFC000
3F8000
000000
003FC0
003FF0
003CF0
003FC0
003CF0
003CF0
ENDCHAR

STARTCHAR LF
ENCODING 101
SWIDTH 1131 0
DWIDTH 22 0
BBX 20 13 1 -1
BITMAP
F00000
F00000
F00000
F00000
FF8000
FF8000
003FF0
003FF0
003C00
003FC0
003FC0
003C00
003C00
ENDCHAR

STARTCHAR degree
ENCODING 102
SWIDTH 1131 0
DWIDTH 22 0
BBX 12 6 5 5
BITMAP
3FC0
FFF0
F0F0
F0F0
FFF0
3FC0
ENDCHAR

STARTCHAR plusminus
ENCODING 103
SWIDTH 1131 0
DWIDTH 22 0
BBX 18 11 2 0
BITMAP
03F000
03F000
03F000
FFFFC0
FFFFC0
03F000
03F000
03F000
000000
FFFFC0
FFFFC0
ENDCHAR

STARTCHAR NL
ENCODING 104
SWIDTH 1131 0
DWIDTH 22 0
BBX 20 13 1 -1
BITMAP
F0F000
FCF000
FEF000
F7F000
F3F000
F0F000
000000
000F00
000F00
000F00
000F00
000FF0
000FF0
ENDCHAR

STARTCHAR VT
ENCODING 105
SWIDTH 1131 0
DWIDTH 22 0
BBX 20 13 1 -1
BITMAP
F0F000
F0F000
F0F000
3FC000
3FC000
0F0000
000000
003FF0
003FF0
000780
000780
000780
000780
ENDCHAR

STARTCHAR ldcornsqlr
ENCODING 106
SWIDTH 1131 0
DWIDTH 22 0
BBX 14 11 0 4
BITMAP
00FC
00FC
00FC
00FC
00FC
00FC
00FC
00FC
00FC
FFFC
FFFC
ENDCHAR

STARTCHAR ldcornsqur
ENCODING 107
SWIDTH 1131 0
DWIDTH 22 0
BBX 14 11 0 -5
BITMAP
FFFC
FFFC
00FC
00FC
00FC
00FC
00FC
00FC
00FC
00FC
00FC
ENDCHAR

STARTCHAR ldcornsqul
ENCODING 108
SWIDTH 1131 0
DWIDTH 22 0
BBX 14 11 8 -5
BITMAP
FFFC
FFFC
FC00
FC00
FC00
FC00
FC00
FC00
FC00
FC00
FC00
ENDCHAR

STARTCHAR ldcornsqll
ENCODING 109
SWIDTH 1131 0
DWIDTH 22 0
BBX 14 11 8 4
BITMAP
FC00
FC00
FC00
FC00
FC00
FC00
FC00
FC00
FC00
FFFC
FFFC
ENDCHAR

STARTCHAR ldcross
ENCODING 110
SWIDTH 1131 0
DWIDTH 22 0
BBX 22 20 0 -5
BITMAP
00FC00
00FC00
00FC00
00FC00
00FC00
00FC00
00FC00
00FC00
00FC00
FFFFFC
FFFFFC
00FC00
00FC00
00FC00
00FC00
00FC00
00FC00
00FC00
00FC00
00FC00
ENDCHAR

STARTCHAR ldscan1
ENCODING 111
SWIDTH 1131 0
DWIDTH 22 0
BBX 22 2 0 11
BITMAP
FFFFFC
FFFFFC
ENDCHAR

STARTCHAR ldscan3
ENCODING 112
SWIDTH 1131 0
DWIDTH 22 0
BBX 22 2 0 7
BITMAP
FFFFFC
FFFFFC
ENDCHAR

STARTCHAR ldhorizontal
ENCODING 113
SWIDTH 1131 0
DWIDTH 22 0
BBX 22 2 0 4
BITMAP
FFFFFC
FFFFFC
ENDCHAR

STARTCHAR ldscan7
ENCODING 114
SWIDTH 1131 0
DWIDTH 22 0
BBX 22 2 0 -1
BITMAP
FFFFFC
FFFFFC
ENDCHAR

STARTCHAR ldscan9
ENCODING 115
SWIDTH 1131 0
DWIDTH 22 0
BBX 22 2 0 -5
BITMAP
FFFFFC
FFFFFC
ENDCHAR

STARTCHAR ldteelft
ENCODING 116
SWIDTH 1131 0
DWIDTH 22 0
BBX 14 20 8 -5
BITMAP
FC00
FC00
FC00
FC00
FC00
FC00
FC00
FC00
FC00
FFFC
FFFC
FC00
FC00
FC00
FC00
FC00
FC00
FC00
FC00
FC00
ENDCHAR

STARTCHAR ldteert
ENCODING 117
SWIDTH 1131 0
DWIDTH 22 0
BBX 14 20 0 -5
BITMAP
00FC
00FC
00FC
00FC
00FC
00FC
00FC
00FC
00FC
FFFC
FFFC
00FC
00FC
00FC
00FC
00FC
00FC
00FC
00FC
00FC
ENDCHAR

STARTCHAR ldteebt
ENCODING 118
SWIDTH 1131 0
DWIDTH 22 0
BBX 22 11 0 4
BITMAP
00FC00
00FC00
00FC00
00FC00
00FC00
00FC00
00FC00
00FC00
00FC00
FFFFFC
FFFFFC
ENDCHAR

STARTCHAR ldteetp
ENCODING 119
SWIDTH 1131 0
DWIDTH 22 0
BBX 22 11 0 -5
BITMAP
FFFFFC
FFFFFC
00FC00
00FC00
00FC00
00FC00
00FC00
00FC00
00FC00
00FC00
00FC00
ENDCHAR

STARTCHAR ldvertical
ENCODING 120
SWIDTH 1131 0
DWIDTH 22 0
BBX 6 20 8 -5
BITMAP
FC
FC
FC
FC
FC
FC
FC
FC
FC
FC
FC
FC
FC
FC
FC
FC
FC
FC
FC
FC
ENDCHAR

STARTCHAR lessequal
ENCODING 121
SWIDTH 1131 0
DWIDTH 22 0
BBX 20 10 1 0
BITMAP
0003F0
00FFF0
3FFC00
FF0000
3FFC00
00FFF0
0003F0
000000
FFFFF0
FFFFF0
ENDCHAR

STARTCHAR greaterequal
ENCODING 122
SWIDTH 1131 0
DWIDTH 22 0
BBX 20 10 1 0
BITMAP
FC0000
FFF000
03FFC0
000FF0
03FFC0
FFF000
FC0000
000000
FFFFF0
FFFFF0
ENDCHAR

STARTCHAR pi
ENCODING 123
SWIDTH 1131 0
DWIDTH 22 0
BBX 21 9 0 0
BITMAP
FFFFF8
FFFFF8
3E07C0
3E0F80
7C0F80
7C0F00
7C1F00
F81FC0
F81FC0
ENDCHAR

STARTCHAR notequal
ENCODING 124
SWIDTH 1131 0
DWIDTH 22 0
BBX 18 10 2 0
BITMAP
000E00
001C00
FFFFC0
FFFFC0
00E000
01C000
FFFFC0
FFFFC0
0E0000
1C0000
ENDCHAR

STARTCHAR sterling
ENCODING 125
SWIDTH 1131 0
DWIDTH 22 0
BBX 20 11 1 0
BITMAP
03FF00
0FFFC0
0FC3C0
0FC000
FFFF00
FFFF00
03E000
03E000
03F070
3FFFF0
3F1FC0
ENDCHAR

STARTCHAR periodcentered
ENCODING 126
SWIDTH 1131 0
DWIDTH 22 0
BBX 8 4 7 3
BITMAP
3C
FF
FF
3C
ENDCHAR

STARTCHAR Error
ENCODING 159
SWIDTH 1131 0
DWIDTH 22 0
BBX 20 19 1 -4
BITMAP
1FFFC0
7FFFF0
FFFFF0
FF0FF0
FF0FF0
FF8000
7FE000
3FF800
0FFC00
07FC00
03FC00
03FC00
000000
000000
03FC00
03FC00
03FC00
03FC00
03FC00
ENDCHAR

STARTCHAR ldradicalbt
ENCODING 161
SWIDTH 1131 0
DWIDTH 22 0
BBX 13 12 1 3
BITMAP
01F8
01F8
01F8
01F8
31F8
79F8
FDF8
DFF8
0FF8
07F8
03F8
01F8
ENDCHAR

STARTCHAR ldradicaltp
ENCODING 162
SWIDTH 1131 0
DWIDTH 22 0
BBX 14 11 8 -5
BITMAP
FFFC
FFFC
FC00
FC00
FC00
FC00
FC00
FC00
FC00
FC00
FC00
ENDCHAR

STARTCHAR ldhorizontal
ENCODING 163
SWIDTH 1131 0
DWIDTH 22 0
BBX 22 2 0 4
BITMAP
FFFFFC
FFFFFC
ENDCHAR

STARTCHAR ldintegraltp
ENCODING 164
SWIDTH 1131 0
DWIDTH 22 0
BBX 13 18 8 -5
BITMAP
1FF8
7FF8
7E00
FC00
FC00
FC00
FC00
FC00
FC00
FC00
FC00
FC00
FC00
FC00
FC00
FC00
FC00
FC00
ENDCHAR

STARTCHAR ldintegralbt
ENCODING 165
SWIDTH 1131 0
DWIDTH 22 0
BBX 14 18 0 -3
BITMAP
00FC
00FC
00FC
00FC
00FC
00FC
00FC
00FC
00FC
00FC
00FC
00FC
00FC
00FC
00FC
01F8
FFF8
FFE0
ENDCHAR

STARTCHAR ldvertical
ENCODING 166
SWIDTH 1131 0
DWIDTH 22 0
BBX 6 20 8 -5
BITMAP
FC
FC
FC
FC
FC
FC
FC
FC
FC
FC
FC
FC
FC
FC
FC
FC
FC
FC
FC
FC
ENDCHAR

STARTCHAR ldbracketlfttp
ENCODING 167
SWIDTH 1131 0
DWIDTH 22 0
BBX 10 18 8 -5
BITMAP
FFC0
FFC0
FC00
FC00
FC00
FC00
FC00
FC00
FC00
FC00
FC00
FC00
FC00
FC00
FC00
FC00
FC00
FC00
ENDCHAR

STARTCHAR ldbracketlftbt
ENCODING 168
SWIDTH 1131 0
DWIDTH 22 0
BBX 10 18 8 -3
BITMAP
FC00
FC00
FC00
FC00
FC00
FC00
FC00
FC00
FC00
FC00
FC00
FC00
FC00
FC00
FC00
FC00
FFC0
FFC0
ENDCHAR

STARTCHAR ldbracketrttp
ENCODING 169
SWIDTH 1131 0
DWIDTH 22 0
BBX 10 18 4 -5
BITMAP
FFC0
FFC0
0FC0
0FC0
0FC0
0FC0
0FC0
0FC0
0FC0
0FC0
0FC0
0FC0
0FC0
0FC0
0FC0
0FC0
0FC0
0FC0
ENDCHAR

STARTCHAR ldbracketrtbt
ENCODING 170
SWIDTH 1131 0
DWIDTH 22 0
BBX 10 18 4 -3
BITMAP
0FC0
0FC0
0FC0
0FC0
0FC0
0FC0
0FC0
0FC0
0FC0
0FC0
0FC0
0FC0
0FC0
0FC0
0FC0
0FC0
FFC0
FFC0
ENDCHAR

STARTCHAR ldbracelfttp
ENCODING 171
SWIDTH 1131 0
DWIDTH 22 0
BBX 12 18 8 -5
BITMAP
1FF0
7FF0
7E00
FC00
FC00
FC00
FC00
FC00
FC00
FC00
FC00
FC00
FC00
FC00
FC00
FC00
FC00
FC00
ENDCHAR

STARTCHAR ldbracelftbt
ENCODING 172
SWIDTH 1131 0
DWIDTH 22 0
BBX 12 18 8 -3
BITMAP
FC00
FC00
FC00
FC00
FC00
FC00
FC00
FC00
FC00
FC00
FC00
FC00
FC00
FC00
FC00
7E00
7FF0
1FF0
ENDCHAR

STARTCHAR ldbracerttp
ENCODING 173
SWIDTH 1131 0
DWIDTH 22 0
BBX 12 18 2 -5
BITMAP
FF80
FFE0
07E0
03F0
03F0
03F0
03F0
03F0
03F0
03F0
03F0
03F0
03F0
03F0
03F0
03F0
03F0
03F0
ENDCHAR

STARTCHAR ldbracertbt
ENCODING 174
SWIDTH 1131 0
DWIDTH 22 0
BBX 12 18 2 -3
BITMAP
03F0
03F0
03F0
03F0
03F0
03F0
03F0
03F0
03F0
03F0
03F0
03F0
03F0
03F0
03F0
07E0
FFE0
FF80
ENDCHAR

STARTCHAR ldbracelftmid
ENCODING 175
SWIDTH 1131 0
DWIDTH 22 0
BBX 10 20 4 -5
BITMAP
0FC0
0FC0
0FC0
0FC0
0FC0
0FC0
0FC0
0FC0
1F00
FC00
FC00
1F00
0FC0
0FC0
0FC0
0FC0
0FC0
0FC0
0FC0
0FC0
ENDCHAR

STARTCHAR ldbracertmid
ENCODING 176
SWIDTH 1131 0
DWIDTH 22 0
BBX 10 20 8 -5
BITMAP
FC00
FC00
FC00
FC00
FC00
FC00
FC00
FC00
3E00
0FC0
0FC0
3E00
FC00
FC00
FC00
FC00
FC00
FC00
FC00
FC00
ENDCHAR

STARTCHAR ldsigmalfttp
ENCODING 177
SWIDTH 1131 0
DWIDTH 22 0
BBX 14 11 8 -5
BITMAP
FFFC
FFFC
7C00
3E00
1F00
0F80
07E0
01F0
00F8
007C
003C
ENDCHAR

STARTCHAR ldsigmalftbt
ENCODING 178
SWIDTH 1131 0
DWIDTH 22 0
BBX 14 11 8 4
BITMAP
003C
007C
00F8
01F0
07E0
0F80
1F00
3E00
7C00
FFFC
FFFC
ENDCHAR

STARTCHAR ldbackslash
ENCODING 179
SWIDTH 1131 0
DWIDTH 22 0
BBX 22 20 0 -5
BITMAP
800000
C00000
E00000
F00000
780000
3E0000
1F0000
0F8000
03C000
01E000
00F000
007800
003C00
001E00
000F80
0007C0
0001E0
0000F0
000078
00003C
ENDCHAR

STARTCHAR ldslash
ENCODING 180
SWIDTH 1131 0
DWIDTH 22 0
BBX 22 20 0 -5
BITMAP
000004
00000C
00001C
00003C
000078
0001F0
0003E0
0007C0
000F00
001E00
003C00
007800
00F000
01E000
07C000
0F8000
1E0000
3C0000
780000
F00000
ENDCHAR

STARTCHAR ldsigmarttp
ENCODING 181
SWIDTH 1131 0
DWIDTH 22 0
BBX 22 6 0 0
BITMAP
FFFFFC
FFFFFC
0000FC
0000FC
0000FC
0000FC
ENDCHAR

STARTCHAR ldsigmartbt
ENCODING 182
SWIDTH 1131 0
DWIDTH 22 0
BBX 22 6 0 4
BITMAP
0000FC
0000FC
0000FC
0000FC
FFFFFC
FFFFFC
ENDCHAR

STARTCHAR ldsigmamid
ENCODING 183
SWIDTH 1131 0
DWIDTH 22 0
BBX 13 20 0 -5
BITMAP
8000
C000
E000
F000
7800
3E00
1F00
0F80
03C0
01E0
00F8
0078
00F0
01E0
07C0
0F80
1E00
3C00
7800
F000
ENDCHAR

STARTCHAR lessequal
ENCODING 188
SWIDTH 1131 0
DWIDTH 22 0
BBX 20 10 1 0
BITMAP
0003F0
00FFF0
3FFC00
FF0000
3FFC00
00FFF0
0003F0
000000
FFFFF0
FFFFF0
ENDCHAR

STARTCHAR notequal
ENCODING 189
SWIDTH 1131 0
DWIDTH 22 0
BBX 18 10 2 0
BITMAP
000E00
001C00
FFFFC0
FFFFC0
00E000
01C000
FFFFC0
FFFFC0
0E0000
1C0000
ENDCHAR

STARTCHAR greaterequal
ENCODING 190
SWIDTH 1131 0
DWIDTH 22 0
BBX 20 10 1 0
BITMAP
FC0000
FFF000
03FFC0
000FF0
03FFC0
FFF000
FC0000
000000
FFFFF0
FFFFF0
ENDCHAR

STARTCHAR integral
ENCODING 191
SWIDTH 1131 0
DWIDTH 22 0
BBX 20 18 1 -4
BITMAP
003FE0
00FFF0
00F870
01F800
01F800
01F800
01F800
01F800
01F800
01F800
01F800
01F800
01F800
01F800
01F800
E1F000
FFF000
7FC000
ENDCHAR

STARTCHAR therefore
ENCODING 192
SWIDTH 1131 0
DWIDTH 22 0
BBX 20 10 1 0
BITMAP
00F000
03FC00
03FC00
00F000
000000
000000
3C03C0
FF0FF0
FF0FF0
3C03C0
ENDCHAR

STARTCHAR proportional
ENCODING 193
SWIDTH 1131 0
DWIDTH 22 0
BBX 20 8 1 1
BITMAP
1FC3F0
7FFFF0
F8FF00
F03C00
F03C00
F8FF00
7FFFF0
1FC3F0
ENDCHAR

STARTCHAR infinity
ENCODING 194
SWIDTH 1131 0
DWIDTH 22 0
BBX 22 8 0 1
BITMAP
1FCFE0
7FFFF8
FCFCFC
F0303C
F0303C
FCFCFC
7FFFF8
1FCFE0
ENDCHAR

STARTCHAR divide
ENCODING 195
SWIDTH 1131 0
DWIDTH 22 0
BBX 20 10 1 0
BITMAP
00F000
03FC00
00F000
000000
FFFFF0
FFFFF0
000000
00F000
03FC00
00F000
ENDCHAR

STARTCHAR Delta
ENCODING 196
SWIDTH 1131 0
DWIDTH 22 0
BBX 20 11 1 0
BITMAP
00F000
01F800
03FC00
07FE00
0F9F00
1F0F80
3E07C0
7C03E0
F801F0
FFFFF0
FFFFF0
ENDCHAR

STARTCHAR gradient
ENCODING 197
SWIDTH 1131 0
DWIDTH 22 0
BBX 20 11 1 0
BITMAP
FFFFF0
FFFFF0
F801F0
7C03E0
3E07C0
1F0F80
0F9F00
07FE00
03FC00
01F800
00F000
ENDCHAR

STARTCHAR Phi
ENCODING 198
SWIDTH 1131 0
DWIDTH 22 0
BBX 18 11 2 0
BITMAP
0FFC00
03F000
3FFF00
7FFF80
F3F3C0
F3F3C0
F3F3C0
7FFF80
3FFF00
03F000
0FFC00
ENDCHAR

STARTCHAR Gamma
ENCODING 199
SWIDTH 1131 0
DWIDTH 22 0
BBX 18 11 2 0
BITMAP
FFFFC0
FFFFC0
3F0FC0
3F0FC0
3F0FC0
3F0000
3F0000
3F0000
3F0000
FFF000
FFF000
ENDCHAR

STARTCHAR similar
ENCODING 200
SWIDTH 1131 0
DWIDTH 22 0
BBX 16 4 3 3
BITMAP
3F07
7FC7
E1FE
E07C
ENDCHAR

STARTCHAR approxequal
ENCODING 201
SWIDTH 1131 0
DWIDTH 22 0
BBX 16 8 3 1
BITMAP
3F07
7FC7
E1FE
E07C
0000
0000
FFFF
FFFF
ENDCHAR

STARTCHAR Theta
ENCODING 202
SWIDTH 1131 0
DWIDTH 22 0
BBX 20 11 1 0
BITMAP
07FE00
3FFFC0
7E07E0
FC03F0
FCF3F0
FCF3F0
FC03F0
FC03F0
7E07E0
3FFFC0
07FE00
ENDCHAR

STARTCHAR multiply
ENCODING 203
SWIDTH 1131 0
DWIDTH 22 0
BBX 16 8 3 1
BITMAP
300C
FC3F
3FFC
0FF0
0FF0
3FFC
FC3F
300C
ENDCHAR

STARTCHAR Lambda
ENCODING 204
SWIDTH 1131 0
DWIDTH 22 0
BBX 20 11 1 0
BITMAP
00F000
01F800
03FC00
07FE00
0F9F00
1F0F80
3E07C0
7C03E0
F801F0
FF0FF0
FF0FF0
ENDCHAR

STARTCHAR arrowdblboth
ENCODING 205
SWIDTH 1131 0
DWIDTH 22 0
BBX 22 9 0 1
BITMAP
030300
0F03C0
3FFFF0
7FFFF8
FC00FC
7FFFF8
3FFFF0
0F03C0
030300
ENDCHAR

STARTCHAR arrowdblright
ENCODING 206
SWIDTH 1131 0
DWIDTH 22 0
BBX 22 9 0 1
BITMAP
003F00
000FC0
FFFFF0
FFFFF8
0001FC
FFFFF8
FFFFF0
000FC0
003F00
ENDCHAR

STARTCHAR equivalence
ENCODING 207
SWIDTH 1131 0
DWIDTH 22 0
BBX 18 8 2 1
BITMAP
FFFFC0
FFFFC0
000000
FFFFC0
FFFFC0
000000
FFFFC0
FFFFC0
ENDCHAR

STARTCHAR Pi
ENCODING 208
SWIDTH 1131 0
DWIDTH 22 0
BBX 20 11 1 0
BITMAP
FFFFF0
FFFFF0
3F0FC0
3F0FC0
3F0FC0
3F0FC0
3F0FC0
3F0FC0
3F0FC0
FF0FF0
FF0FF0
ENDCHAR

STARTCHAR Psi
ENCODING 209
SWIDTH 1131 0
DWIDTH 22 0
BBX 18 11 2 0
BITMAP
0FFC00
03F000
F3F3C0
F3F3C0
F3F3C0
F3F3C0
FFFFC0
3FFF00
03F000
03F000
0FFC00
ENDCHAR

STARTCHAR Sigma
ENCODING 211
SWIDTH 1131 0
DWIDTH 22 0
BBX 20 11 1 0
BITMAP
FFFFF0
FFFFF0
3F00F0
0FC0F0
03F000
00FC00
03F000
0FC0F0
3F00F0
FFFFF0
FFFFF0
ENDCHAR

STARTCHAR radical
ENCODING 214
SWIDTH 1131 0
DWIDTH 22 0
BBX 22 16 0 -2
BITMAP
00001C
00003C
00007C
0000F8
0001F0
FC03E0
FC03C0
3E0780
1E0F80
1F1F00
0F3E00
07FC00
07F800
03F000
03F000
01E000
ENDCHAR

STARTCHAR Omega
ENCODING 215
SWIDTH 1131 0
DWIDTH 22 0
BBX 18 11 2 0
BITMAP
0FFC00
3FFF00
7E1F80
FC0FC0
FC0FC0
FC0FC0
7C0F80
3E1F00
0F3C00
FF3FC0
FF3FC0
ENDCHAR

STARTCHAR Xi
ENCODING 216
SWIDTH 1131 0
DWIDTH 22 0
BBX 18 11 2 0
BITMAP
FFFFC0
FFFFC0
F003C0
000000
3C0F00
3FFF00
3FFF00
000000
F003C0
FFFFC0
FFFFC0
ENDCHAR

STARTCHAR Upsilon1
ENCODING 217
SWIDTH 1131 0
DWIDTH 22 0
BBX 18 11 2 0
BITMAP
FC0FC0
FE0FC0
3E1F00
1F3E00
0F3C00
07F800
07F800
03F000
03F000
3FFF00
3FFF00
ENDCHAR

STARTCHAR propersubset
ENCODING 218
SWIDTH 1131 0
DWIDTH 22 0
BBX 18 11 2 0
BITMAP
0FFFC0
3FFFC0
7E0000
FC0000
FC0000
FC0000
FC0000
FC0000
7E0000
3FFFC0
0FFFC0
ENDCHAR

STARTCHAR propersuperset
ENCODING 219
SWIDTH 1131 0
DWIDTH 22 0
BBX 18 11 2 0
BITMAP
FFFC00
FFFF00
001F80
000FC0
000FC0
000FC0
000FC0
000FC0
001F80
FFFF00
FFFC00
ENDCHAR

STARTCHAR intersection
ENCODING 220
SWIDTH 1131 0
DWIDTH 22 0
BBX 20 11 1 0
BITMAP
0FFF00
3FFFC0
7F0FE0
FC03F0
FC03F0
FC03F0
FC03F0
FC03F0
FC03F0
FC03F0
FC03F0
ENDCHAR

STARTCHAR union
ENCODING 221
SWIDTH 1131 0
DWIDTH 22 0
BBX 20 11 1 0
BITMAP
FC03F0
FC03F0
FC03F0
FC03F0
FC03F0
FC03F0
FC03F0
FC03F0
7F0FE0
3FFFC0
0FFF00
ENDCHAR

STARTCHAR logicaland
ENCODING 222
SWIDTH 1131 0
DWIDTH 22 0
BBX 22 11 0 0
BITMAP
00FC00
01FE00
03FF00
03FF00
07CF80
0FCFC0
0F87C0
1F03E0
3F03F0
3E01F0
FE01FC
ENDCHAR

STARTCHAR logicalor
ENCODING 223
SWIDTH 1131 0
DWIDTH 22 0
BBX 22 11 0 0
BITMAP
FE01FC
3E01F0
3F03F0
1F03E0
0F87C0
0FCFC0
07CF80
03FF00
03FF00
01FE00
00FC00
ENDCHAR

STARTCHAR logicalnot
ENCODING 224
SWIDTH 1131 0
DWIDTH 22 0
BBX 18 6 2 2
BITMAP
FFFFC0
FFFFC0
000FC0
000FC0
000FC0
000FC0
ENDCHAR

STARTCHAR alpha
ENCODING 225
SWIDTH 1131 0
DWIDTH 22 0
BBX 20 9 1 0
BITMAP
07F0F0
1FFFF0
7E1FC0
7C0F80
FC0F00
FC0F00
7E3F00
7FFFF0
1FC3F0
ENDCHAR

STARTCHAR beta
ENCODING 226
SWIDTH 1131 0
DWIDTH 22 0
BBX 21 16 0 -4
BITMAP
00FFE0
03FFF8
07E1F8
0780F8
0F81F0
0F1FE0
1F1FF0
1E01F8
3E01F8
3F01F8
3FFFF0
78FFC0
780000
F00000
F00000
F00000
ENDCHAR

STARTCHAR chi
ENCODING 227
SWIDTH 1131 0
DWIDTH 22 0
BBX 20 13 1 -4
BITMAP
3F0030
3F00F0
0FC3F0
0FCFC0
03FF00
03FC00
00F000
03FC00
0FFC00
3F3F00
FC3F00
F00FC0
C00FC0
ENDCHAR

STARTCHAR delta
ENCODING 228
SWIDTH 1131 0
DWIDTH 22 0
BBX 20 12 1 0
BITMAP
00FFF0
03FFF0
03F000
00FC00
0FFF00
3FDFC0
7E07E0
FC03F0
FC03F0
7E07E0
7FFFE0
1FFF80
ENDCHAR

STARTCHAR epsilon
ENCODING 229
SWIDTH 1131 0
DWIDTH 22 0
BBX 18 9 2 0
BITMAP
07FF00
3FFFC0
3F0000
FFFC00
FFFC00
FC0000
FC0000
7FFF00
1FFC00
ENDCHAR

STARTCHAR phi
ENCODING 230
SWIDTH 1131 0
DWIDTH 22 0
BBX 18 16 2 -4
BITMAP
007800
007800
007000
0FFF00
3FFF80
7CE7C0
F0E3C0
F1E3C0
F1C3C0
F9CF80
7FFF00
3FFC00
078000
078000
070000
0F0000
ENDCHAR

STARTCHAR gamma
ENCODING 231
SWIDTH 1131 0
DWIDTH 22 0
BBX 20 13 1 -4
BITMAP
FC01F0
FC03F0
3E07C0
1F0F80
0F9F00
07FE00
03FC00
01F800
01F000
03E000
07C000
0F8000
1F0000
ENDCHAR

STARTCHAR eta
ENCODING 232
SWIDTH 1131 0
DWIDTH 22 0
BBX 20 13 1 -4
BITMAP
FF1FE0
FFFFF0
3FE3F0
3F03F0
3E03F0
7E07E0
7C07E0
FC0FC0
FC0FC0
000F80
001F80
001F00
001F00
ENDCHAR

STARTCHAR iota
ENCODING 233
SWIDTH 1131 0
DWIDTH 22 0
BBX 14 9 4 0
BITMAP
FFC0
FFC0
0F80
0F80
1F00
1F00
3F1C
3FFC
1FF0
ENDCHAR

STARTCHAR theta
ENCODING 234
SWIDTH 1131 0
DWIDTH 22 0
BBX 20 12 1 0
BITMAP
01FF80
0FFFE0
1F83E0
3E01F0
7C01F0
7FFFF0
FFFFE0
F803E0
F807C0
7C1F80
7FFF00
1FF800
ENDCHAR

STARTCHAR kappa
ENCODING 235
SWIDTH 1131 0
DWIDTH 22 0
BBX 18 9 2 0
BITMAP
FF03C0
FF0FC0
3E3F00
3FFC00
3FF000
7FF800
7C7C00
F83F00
F80FC0
ENDCHAR

STARTCHAR lambda
ENCODING 236
SWIDTH 1131 0
DWIDTH 22 0
BBX 22 12 0 0
BITMAP
0FF000
0FF800
00F800
007C00
00FC00
01FE00
03FF00
07CF00
0F8F80
1F07C0
3E03E0
FC03FC
ENDCHAR

STARTCHAR nu
ENCODING 238
SWIDTH 1131 0
DWIDTH 22 0
BBX 20 9 1 0
BITMAP
FFC3F0
FFC3F0
0FC3F0
0FC3F0
0FC7C0
0FCFC0
0FFF00
0FFC00
0FF000
ENDCHAR

STARTCHAR partialdiff
ENCODING 239
SWIDTH 1131 0
DWIDTH 22 0
BBX 16 12 3 0
BITMAP
3FF0
3FFC
003E
003F
1FFF
7FFF
FC3F
FC3F
FC3F
FC3E
7FFC
1FF0
ENDCHAR

STARTCHAR pi
ENCODING 240
SWIDTH 1131 0
DWIDTH 22 0
BBX 21 9 0 0
BITMAP
FFFFF8
FFFFF8
3E07C0
3E0F80
7C0F80
7C0F00
7C1F00
F81FC0
F81FC0
ENDCHAR

STARTCHAR psi
ENCODING 241
SWIDTH 1131 0
DWIDTH 22 0
BBX 18 16 2 -4
BITMAP
00F000
00F000
00F000
78F3C0
78F3C0
79E3C0
F1E3C0
F1E3C0
F1E380
F1E780
FFFF00
3FFE00
078000
078000
078000
078000
ENDCHAR

STARTCHAR rho
ENCODING 242
SWIDTH 1131 0
DWIDTH 22 0
BBX 21 13 0 -4
BITMAP
07FF80
1FFFE0
3F03F0
7E01F8
7E01F8
7E01F8
7F03F0
7FFFE0
FFFF80
FC0000
FC0000
FC0000
FC0000
ENDCHAR

STARTCHAR sigma
ENCODING 243
SWIDTH 1131 0
DWIDTH 22 0
BBX 20 9 1 0
BITMAP
03FFF0
1FFFF0
7F87C0
7E03E0
FC03F0
FC07E0
7E1FE0
3FFF80
0FFE00
ENDCHAR

STARTCHAR tau
ENCODING 244
SWIDTH 1131 0
DWIDTH 22 0
BBX 18 9 2 0
BITMAP
FFFFC0
FFFFC0
03E000
07C000
07C000
0F8000
0F81C0
0FFFC0
07FF00
ENDCHAR

STARTCHAR florin
ENCODING 246
SWIDTH 1131 0
DWIDTH 22 0
BBX 20 14 1 -3
BITMAP
000FF0
003FF0
003E00
007C00
0FFFC0
0FFFC0
00F800
00F000
01F000
01E000
03E000
07C000
FFC000
FF0000
ENDCHAR

STARTCHAR omega
ENCODING 247
SWIDTH 1131 0
DWIDTH 22 0
BBX 20 9 1 0
BITMAP
7E03F0
7E03F0
7E03F0
FCF3F0
FCF3F0
FCF3F0
FCF3E0
FFFFC0
3F3F00
ENDCHAR

STARTCHAR xi
ENCODING 248
SWIDTH 1131 0
DWIDTH 22 0
BBX 18 16 2 -4
BITMAP
3FFFC0
3FFFC0
07E000
0FC000
0FC000
07FC00
3FFC00
7E0000
FC0000
FE0000
7FFE00
3FFF00
003F00
003E00
007C00
00F000
ENDCHAR

STARTCHAR upsilon
ENCODING 249
SWIDTH 1131 0
DWIDTH 22 0
BBX 18 9 2 0
BITMAP
3F0FC0
3E0FC0
7E0FC0
7C0FC0
FC1F80
FC1F80
FC3F00
7FFC00
1FF000
ENDCHAR

STARTCHAR zeta
ENCODING 250
SWIDTH 1131 0
DWIDTH 22 0
BBX 18 16 2 -4
BITMAP
3FFFC0
3FFFC0
00FC00
03F000
0FC000
3F0000
7E0000
FC0000
FC0000
FE0000
7FFF00
1FFFC0
000FC0
000F80
003F00
003C00
ENDCHAR

STARTCHAR arrowleft
ENCODING 251
SWIDTH 1131 0
DWIDTH 22 0
BBX 22 8 0 1
BITMAP
03C000
0FC000
3F0000
FFFFFC
FFFFFC
3F0000
0FC000
03C000
ENDCHAR

STARTCHAR arrowup
ENCODING 252
SWIDTH 1131 0
DWIDTH 22 0
BBX 18 17 2 -4
BITMAP
00C000
03F000
0FFC00
1FFE00
7FFF80
F3F3C0
E3F1C0
03F000
03F000
03F000
03F000
03F000
03F000
03F000
03F000
03F000
03F000
ENDCHAR

STARTCHAR arrowright
ENCODING 253
SWIDTH 1131 0
DWIDTH 22 0
BBX 22 8 0 1
BITMAP
000F00
000FC0
0003F0
FFFFFC
FFFFFC
0003F0
000FC0
000F00
ENDCHAR

STARTCHAR arrowdown
ENCODING 254
SWIDTH 1131 0
DWIDTH 22 0
BBX 18 17 2 -4
BITMAP
03F000
03F000
03F000
03F000
03F000
03F000
03F000
03F000
03F000
03F000
E3F1C0
F3F3C0
7FFF80
1FFE00
0FFC00
03F000
00C000
ENDCHAR
ENDFONT
